PathFileType	4	(X/Y/Z)	RBDS018\RBDS018runT25.trc
DataRate	CameraRate	NumFrames	NumMarkers	Units	OrigDataRate	OrigDataStartFrame	OrigNumFrames
150.000000	150.000000	6	33	mm	150.000000	3375	4500
Frame#	Time	L.ASIS			L.Heel.Bottom			L.Heel.Lateral			L.Heel.Top			L.Iliac.Crest			L.MT1			L.MT5			L.PSIS			L.Shank.Bottom.Lateral			L.Shank.Bottom.Medial			L.Shank.Top.Lateral			L.Shank.Top.Medial			L.Thigh.Bottom.Lateral			L.Thigh.Bottom.Medial			L.Thigh.Top.Lateral			L.Thigh.Top.Medial			R.ASIS			R.ASY			R.Heel.Bottom			R.Heel.Lateral			R.Heel.Top			R.Iliac.Crest			R.MT1			R.MT5			R.PSIS			R.Shank.Bottom.Lateral			R.Shank.Bottom.Medial			R.Shank.Top.Lateral			R.Shank.Top.Medial			R.Thigh.Bottom.Lateral			R.Thigh.Bottom.Medial			R.Thigh.Top.Lateral			R.Thigh.Top.Medial			
		X1	Y1	Z1	X2	Y2	Z2	X3	Y3	Z3	X4	Y4	Z4	X5	Y5	Z5	X6	Y6	Z6	X7	Y7	Z7	X8	Y8	Z8	X9	Y9	Z9	X10	Y10	Z10	X11	Y11	Z11	X12	Y12	Z12	X13	Y13	Z13	X14	Y14	Z14	X15	Y15	Z15	X16	Y16	Z16	X17	Y17	Z17	X18	Y18	Z18	X19	Y19	Z19	X20	Y20	Z20	X21	Y21	Z21	X22	Y22	Z22	X23	Y23	Z23	X24	Y24	Z24	X25	Y25	Z25	X26	Y26	Z26	X27	Y27	Z27	X28	Y28	Z28	X29	Y29	Z29	X30	Y30	Z30	X31	Y31	Z31	X32	Y32	Z32	X33	Y33	Z33	

3376	22.5	2127.191811695133	1027.488953436475	951.1568856775647	1574.718192827301	134.6625442956286	1035.362635801644	1604.584599964683	126.0295367391239	987.561886135543	1606.661180696673	172.9141859817992	1028.536650473646	2066.332456876944	1104.282985176952	908.5179776780218	1769.219951189848	41.59535252960962	1077.966387278374	1742.451511708248	48.47667178242243	964.9361733503119	1951.891480241543	1055.911730787889	1012.486993948407	1705.187991213273	247.4132596180647	960.3197232462278	1681.292213312472	269.6189425280584	999.574384683171	1738.342104864329	317.8051536398899	936.7925376010592	1718.10085170813	343.313649380585	978.93930857793	1950.624619690656	641.5253395206704	895.6789731147825	1896.440048919117	659.9587730684264	941.1606370627989	1972.12972247301	747.8338290310382	879.7668023158359	1920.16885721978	765.2325873099826	923.0663204803905	2127.035122675163	1032.784583499251	1179.3464012405	2114.330712801741	134.7942654384215	1129.994591923636	1926.581420381986	195.2640595741827	1093.325246627368	1947.773396062481	198.0177974620312	1133.582300060217	1964.082166776583	229.7587944123285	1096.533274706498	2059.08922047625	1105.889922751409	1213.180036289174	2121.364094829436	80.78463046538006	1085.239625034913	2083.417357312022	98.19884872671396	1188.284372640983	1951.351225783523	1055.200536235334	1122.828644344276	2070.182895553738	299.5861184026892	1178.415980635043	2037.568218127344	325.7075066626209	1141.868561659985	2105.610892820027	371.2878675753958	1195.523290373843	2073.726537501183	395.3394005992266	1159.091741521245	2231.325788419907	651.6211071189431	1232.413632710544	2177.040221205183	624.5248252980322	1192.521248797186	2172.562941809488	742.8820581903823	1251.98546530454	2119.785164209993	715.8144800163794	1217.679060854711	
3377	22.50666666666667	2129.968127600242	1031.54680947314	952.2828722090793	1566.21173498214	146.0739582819528	1035.58604758696	1595.383326563099	135.6577893050959	987.7301110474765	1600.15418172632	182.4336254731653	1028.569443278732	2070.895145643742	1109.548974084496	908.9737083206325	1754.934925576672	42.30878711458427	1078.068221648087	1728.331734933156	50.19296294382285	964.9572971832711	1954.441923512508	1060.898768036062	1011.598155939031	1696.571629052712	254.3229118159647	960.975009365997	1673.234453845024	275.8773212083687	1000.909314886599	1729.374666464782	325.1491014779641	938.1034508952135	1709.614431512006	349.9539507839757	980.8808661764539	1945.369350558375	647.9062444638287	897.0353884663402	1891.97909177586	667.7805679776676	942.904250637099	1969.458178756776	753.5862884574434	880.7707003756889	1918.158683197708	772.3394596106925	924.3889292887774	2128.086435481472	1038.095061471505	1179.721379314841	2137.53023324726	130.4339842383214	1131.323264221182	1947.307162494642	180.4231196331184	1091.586102081943	1967.583090562799	184.3711213087119	1132.192156522654	1982.719332444073	216.9167117014365	1095.335884327929	2060.087508302235	1111.778221202524	1212.696922801038	2148.195947775135	76.86768037973376	1086.760627463918	2107.639227639008	92.2077618956813	1189.153969710077	1953.115749404857	1060.445987420011	1122.187408432628	2083.685132532962	293.0041925914981	1178.259161114132	2050.516598540016	317.1465737631192	1140.841553426182	2115.030386397704	366.5625427825943	1195.448798581838	2082.698197757352	388.7161862494402	1158.154314360874	2230.864047536452	656.0589165321693	1232.438843402766	2176.610087036573	628.9847572039271	1192.495102106434	2172.216581078491	747.4502724016264	1251.650076250389	2119.50680275001	720.5397919767257	1217.099251867509	
3378	22.51333333333334	2132.761741909462	1035.308875138532	953.4689013658937	1558.669465615661	157.8576406529733	1035.798255203174	1586.999592934413	145.654899863055	987.8816453119965	1594.566033530874	192.1798295280714	1028.547815445921	2075.517635695558	1114.578025530078	909.4814210013733	1741.083278443585	43.44458240015848	1078.110785874949	1714.564810761394	52.34218000286884	964.9338765067728	1957.031634801903	1065.788280023007	1010.780270409231	1688.72353714953	261.1849502759116	961.4512551278377	1665.950550757481	282.0846741443102	1002.061259493754	1721.224784748187	332.4216981328156	939.255008452694	1701.924992648751	356.5333141659488	982.6421655431819	1940.721529197222	654.1382031695914	898.219428978353	1888.092164125282	675.3375565875589	944.4210196193384	1967.238315232647	759.1558099989204	881.6228392169356	1916.587144450732	779.1599589431839	925.5607578498654	2129.197742423506	1043.081233972541	1180.071077408555	2160.760423940191	126.6544985848577	1132.612759718574	1968.662458544618	165.9975700652623	1090.078786093633	1987.963795271468	171.1003078982822	1131.006862223581	2001.837395011061	204.4120739592463	1094.341465848181	2061.13608648362	1117.377045456019	1212.243276883573	2174.975581501589	73.79036076280474	1088.204997233433	2132.048770141656	86.81984735563842	1190.024648969809	1954.948095377119	1065.523016006243	1121.546940612582	2097.354914167464	286.4588835378839	1178.186185997029	2063.768895567199	308.644068525604	1139.924468026928	2124.56651114476	361.6185690970015	1195.433683228741	2091.909400828481	381.907791830587	1157.306466065139	2229.762883969817	659.8573088690325	1232.258587054851	2175.409280189568	632.840255829281	1192.447964624514	2171.399310154698	751.5176459588859	1251.110274088332	2118.664478770508	724.7893088001199	1216.485953529859	
3379	22.52	2135.538301230845	1038.738373989945	954.6783270839352	1552.020432560959	169.897838110726	1035.979346543567	1579.377185099117	155.9368733099719	987.9990551576137	1589.787459552909	202.0680039382807	1028.450149062253	2080.116273789585	1119.317205102467	910.0340940879344	1727.685669142003	45.06704554901253	1078.065376716567	1701.174700018694	54.969423797342	964.8660471860796	1959.634700416254	1070.55239753778	1010.025458329473	1681.597136456131	267.9404772273585	961.7285218646904	1659.365466107985	288.2136899882157	1002.981335864072	1713.873691228118	339.5445204295736	940.2078059356977	1694.987801855505	363.0064906742987	984.1521161558902	1936.690399242771	660.1433203770075	899.2430111744366	1884.764281000662	682.5625734137019	945.701862925837	1965.480612762528	764.477005880527	882.3330061790812	1915.442591133375	785.6400955545854	926.5688865807126	2130.338607285459	1047.682810549798	1180.372063006532	2183.894139374582	123.5242206806677	1133.81667352604	1990.488513627811	152.1136908941748	1088.851456054194	2008.801972465542	158.313572926377	1130.068094477619	2021.297264790974	192.355289498643	1093.596879879507	2062.231412225739	1122.620919346534	1211.822528579663	2201.537447961869	71.6243844129462	1089.495354317246	2156.561994068133	82.1012350873239	1190.844844165135	1956.815265282181	1070.406132377665	1120.904680027771	2111.137936527514	280.0222853419382	1178.212156154352	2077.237671904772	300.2886477073106	1139.162321564372	2134.19881590314	356.5186526268955	1195.502701416749	2101.306463174943	374.9924906423335	1156.602641507493	2228.040761200481	662.9728570836097	1231.916879565181	2173.475864481599	636.0570039675579	1192.38799068118	2170.122645907549	755.0327827382804	1250.413158131488	2117.281666311179	728.5139425426045	1215.863868646642	
3380	22.52666666666667	2138.264461765888	1041.814633502431	955.8822133252685	1546.164583766982	182.0704384513839	1036.10758345226	1572.439987294352	166.4110331664567	988.0639039599993	1585.684582259496	212.0103105691082	1028.261090751074	2084.607976217298	1123.721165798619	910.6267338087224	1714.748496199286	47.22021433732449	1077.912538751522	1688.186727253292	58.09925245318934	964.757348450306	1962.224653755667	1075.163410566993	1009.320821300458	1675.137089609122	274.5401441776011	961.8017012137443	1653.396473284128	294.2495687347038	1003.634342127042	1707.295928726069	346.4472488542933	940.9336080087623	1688.755472025094	369.33767924068	985.3526943857556	1933.295241051248	665.8386475597322	900.1234894262559	1881.991148531119	689.3828021472755	946.744347443367	1964.202240748169	769.4813818751181	882.9167569866898	1914.718425206725	791.7212031112615	927.4019874996047	2131.476353248066	1051.85084601273	1180.610974890951	2206.772779852119	121.0919079296392	1134.891646030797	2012.591748665433	138.9031116785104	1087.928018569917	2029.951359178014	146.1186267846086	1129.396233757848	2040.932771339505	180.8552861520597	1093.13221266253	2063.368709621268	1127.45132215363	1211.441653437377	2227.68422844447	70.41853004636725	1090.556499128176	2181.055283655105	78.09773292517909	1191.555206197461	1958.682035386424	1075.07289817627	1120.260198318184	2124.961098128643	273.7694295467743	1178.347522237052	2090.810398586513	292.1672764334853	1138.595323636059	2143.887780586864	351.3352660420124	1195.678682690396	2110.810790034117	368.0528122466291	1156.095605917909	2225.744120164046	665.3792463684143	1231.478915817223	2170.886308185467	638.6245597185059	1192.323845529551	2168.4219498578	757.9545225814509	1249.629031220838	2115.413045845412	731.6828995702645	1215.261032365999	
3381	22.53333333333333	2140.907686089547	1044.531293447134	957.060694047659	1540.98035425805	194.2494724847058	1036.157465698985	1566.098961485933	176.9792643945987	988.0554865460251	1582.108858624236	221.9194286461952	1027.97041468431	2088.915727333033	1127.751802732369	911.2560601681228	1702.261406815948	49.92494106332931	1077.646593762272	1675.625923694675	61.73237239612288	964.6153494071887	1964.774152803194	1079.592154361559	1008.650517862723	1669.283992348979	280.9461256650732	961.6806908118009	1647.961294692496	300.1887110407455	1004.00179909122	1701.463453598274	353.0700524938788	941.4183850634074	1683.185365867426	375.4996383448569	986.205732303679	1930.56733941529	671.1344440758917	900.8807684375173	1879.781425049315	695.7154069118477	947.5505552310015	1963.42695355861	774.0960975535074	883.393275913244	1914.413479541677	797.3361157746388	928.0493838844724	2132.578130213143	1055.54806631953	1180.785609256025	2229.20953925646	119.3795686697838	1135.800786684451	2034.746448987817	126.4940261748659	1087.307223084501	2051.231314971108	134.615952108792	1128.989145679478	2060.552112429678	170.0138937041875	1092.959661713747	2064.539406796748	1131.816743212642	1211.111389033385	2253.190483830216	70.19065305338633	1091.322391222255	2205.362742334096	74.8266473414611	1192.09339864577	1960.512095215461	1079.501098168348	1119.615428322056	2138.730603509613	267.7740324319845	1178.598617355332	2104.351302729297	284.3613892396723	1138.257651553119	2153.573424934708	346.1467479544777	1195.981550238662	2120.320642881967	361.1721828348732	1155.833904257222	2222.947620044452	667.0710668204697	1231.023678266311	2167.752524637699	640.557883769617	1192.263576839901	2166.355435425066	760.2560282076281	1248.845477553032	2113.142530285525	734.2860044804664	1214.706594647519	
